<svg width="135" height="20" viewBox="0 0 135 20" fill="none" xmlns="http://www.w3.org/2000/svg">
<path d="M19.375 5V5.625C19.375 5.70788 19.3421 5.78736 19.2835 5.84597C19.2249 5.90457 19.1454 5.9375 19.0625 5.9375H18.125V6.40625C18.125 6.66511 17.9151 6.875 17.6562 6.875H2.34375C2.08488 6.875 1.875 6.66511 1.875 6.40625V5.9375H0.9375C0.85462 5.9375 0.775134 5.90457 0.716529 5.84597C0.657924 5.78736 0.625 5.70788 0.625 5.625V5C0.625 4.93817 0.643339 4.87774 0.677695 4.82634C0.712052 4.77494 0.760882 4.73489 0.818008 4.71125L9.88051 1.27375C9.95702 1.24208 10.043 1.24208 10.1195 1.27375L19.182 4.71125C19.2391 4.73489 19.2879 4.77494 19.3223 4.82634C19.3567 4.87774 19.375 4.93817 19.375 5ZM18.4375 16.875H1.5625C1.04473 16.875 0.625 17.2947 0.625 17.8125V18.4375C0.625 18.5204 0.657924 18.5999 0.716529 18.6585C0.775134 18.7171 0.85462 18.75 0.9375 18.75H19.0625C19.1454 18.75 19.2249 18.7171 19.2835 18.6585C19.3421 18.5999 19.375 18.5204 19.375 18.4375V17.8125C19.375 17.2947 18.9553 16.875 18.4375 16.875ZM3.75 7.5V15H2.34375C2.08488 15 1.875 15.2099 1.875 15.4687V16.25H18.125V15.4687C18.125 15.2099 17.9151 15 17.6562 15H16.25V7.5H13.75V15H11.25V7.5H8.75V15H6.25V7.5H3.75Z" fill="url(#paint0_linear_27_746)"/>
<path d="M34.618 15H31.566L29.592 11.178L28.794 11.654V15H26.078V5.004H28.794V9.344C28.906 9.12933 29.0367 8.91467 29.186 8.7C29.3353 8.476 29.48 8.266 29.62 8.07L31.72 5.004H34.674L31.524 9.484L34.618 15ZM44.1173 15H41.4013V10.926H38.2653V15H35.5493V5.004H38.2653V8.714H41.4013V5.004H44.1173V15ZM58.1228 11.024C58.1228 11.864 57.9641 12.592 57.6468 13.208C57.3295 13.824 56.8488 14.3 56.2048 14.636C55.5701 14.972 54.7721 15.14 53.8108 15.14C52.4295 15.14 51.3748 14.79 50.6468 14.09C49.9281 13.3807 49.5688 12.3773 49.5688 11.08V5.004H52.2848V10.87C52.2848 11.5793 52.4155 12.0927 52.6768 12.41C52.9475 12.7273 53.3395 12.886 53.8528 12.886C54.2261 12.886 54.5248 12.816 54.7488 12.676C54.9821 12.536 55.1501 12.3167 55.2528 12.018C55.3648 11.7193 55.4208 11.332 55.4208 10.856V5.004H58.1228V11.024ZM69.6005 15H66.0585L62.4045 7.958H62.3485C62.3672 8.11667 62.3812 8.30333 62.3905 8.518C62.4092 8.73267 62.4232 8.95667 62.4325 9.19C62.4418 9.42333 62.4512 9.652 62.4605 9.876C62.4698 10.1 62.4745 10.3053 62.4745 10.492V15H60.0805V5.004H63.6085L67.2485 11.948H67.2905C67.2812 11.7893 67.2672 11.6073 67.2485 11.402C67.2392 11.1873 67.2298 10.9727 67.2205 10.758C67.2112 10.534 67.2018 10.3147 67.1925 10.1C67.1925 9.88533 67.1925 9.694 67.1925 9.526V5.004H69.6005V15ZM76.2223 15H71.0143V13.46L72.2603 12.984V7.006L71.0143 6.544V5.004H76.2223V6.544L74.9763 7.006V12.984L76.2223 13.46V15ZM86.2803 5.004L83.0043 15H79.8263L76.5643 5.004H79.6023L80.9603 10.072C81.007 10.2587 81.063 10.5013 81.1283 10.8C81.1936 11.0987 81.2543 11.3973 81.3103 11.696C81.3756 11.9947 81.413 12.2373 81.4223 12.424C81.441 12.2373 81.4736 11.9993 81.5203 11.71C81.5763 11.4113 81.6323 11.1173 81.6883 10.828C81.7536 10.5293 81.8143 10.2867 81.8703 10.1L83.2563 5.004H86.2803ZM93.159 15H87.223V5.004H93.159V7.174H89.925V8.742H92.921V10.912H89.925V12.802H93.159V15ZM98.0426 5.004C98.9479 5.004 99.6993 5.116 100.297 5.34C100.903 5.564 101.356 5.89533 101.655 6.334C101.963 6.76333 102.117 7.30467 102.117 7.958C102.117 8.35933 102.047 8.728 101.907 9.064C101.776 9.4 101.585 9.69867 101.333 9.96C101.081 10.2213 100.777 10.45 100.423 10.646L103.335 15H100.269L98.1546 11.36H97.4686V15H94.7666V5.004H98.0426ZM98.0006 7.048H97.4686V9.33H97.9726C98.2526 9.33 98.4953 9.29267 98.7006 9.218C98.9153 9.134 99.0833 9.00333 99.2046 8.826C99.3259 8.63933 99.3866 8.392 99.3866 8.084C99.3866 7.86933 99.3399 7.68733 99.2466 7.538C99.1533 7.37933 99.0039 7.258 98.7986 7.174C98.5933 7.09 98.3273 7.048 98.0006 7.048ZM110.639 11.962C110.639 12.5033 110.499 13.0167 110.219 13.502C109.949 13.9873 109.524 14.384 108.945 14.692C108.376 14.9907 107.634 15.14 106.719 15.14C106.262 15.14 105.861 15.1167 105.515 15.07C105.179 15.0327 104.862 14.9673 104.563 14.874C104.265 14.7807 103.957 14.6593 103.639 14.51V12.102C104.181 12.3727 104.727 12.5827 105.277 12.732C105.828 12.872 106.327 12.942 106.775 12.942C107.046 12.942 107.265 12.9093 107.433 12.844C107.601 12.7787 107.727 12.69 107.811 12.578C107.895 12.466 107.937 12.34 107.937 12.2C107.937 12.0227 107.877 11.8733 107.755 11.752C107.634 11.6307 107.443 11.5047 107.181 11.374C106.92 11.2433 106.57 11.08 106.131 10.884C105.758 10.716 105.422 10.5387 105.123 10.352C104.825 10.1653 104.568 9.95533 104.353 9.722C104.148 9.48867 103.989 9.218 103.877 8.91C103.765 8.59267 103.709 8.21933 103.709 7.79C103.709 7.146 103.868 6.60933 104.185 6.18C104.503 5.74133 104.941 5.41467 105.501 5.2C106.071 4.976 106.729 4.864 107.475 4.864C108.129 4.864 108.717 4.93867 109.239 5.088C109.762 5.228 110.229 5.39133 110.639 5.578L109.813 7.664C109.384 7.468 108.959 7.314 108.539 7.202C108.129 7.08067 107.746 7.02 107.391 7.02C107.158 7.02 106.967 7.048 106.817 7.104C106.668 7.16 106.556 7.23933 106.481 7.342C106.416 7.43533 106.383 7.54267 106.383 7.664C106.383 7.82267 106.444 7.96267 106.565 8.084C106.687 8.20533 106.887 8.34067 107.167 8.49C107.457 8.63 107.849 8.812 108.343 9.036C108.829 9.25067 109.239 9.48867 109.575 9.75C109.921 10.002 110.182 10.3053 110.359 10.66C110.546 11.0053 110.639 11.4393 110.639 11.962ZM116.647 15H111.439V13.46L112.685 12.984V7.006L111.439 6.544V5.004H116.647V6.544L115.401 7.006V12.984L116.647 13.46V15ZM122.477 15H119.775V7.216H117.339V5.004H124.913V7.216H122.477V15ZM129.769 8.714L131.491 5.004H134.417L131.127 11.094V15H128.411V11.178L125.121 5.004H128.061L129.769 8.714Z" fill="url(#paint1_linear_27_746)"/>
<defs>
<linearGradient id="paint0_linear_27_746" x1="10" y1="1.25" x2="10" y2="18.75" gradientUnits="userSpaceOnUse">
<stop stop-color="#FFBD98"/>
<stop offset="0.38" stop-color="#FF432A"/>
<stop offset="0.67" stop-color="#B9311E"/>
<stop offset="1" stop-color="#7A2014"/>
</linearGradient>
<linearGradient id="paint1_linear_27_746" x1="25" y1="15" x2="135" y2="5" gradientUnits="userSpaceOnUse">
<stop stop-color="#FFBD98"/>
<stop offset="0.333333" stop-color="#FF432A"/>
<stop offset="0.666667" stop-color="#B9311E"/>
<stop offset="1" stop-color="#7A2014"/>
</linearGradient>
</defs>
</svg>
